<svg width="576" height="293" viewBox="0 0 576 293" fill="none" xmlns="http://www.w3.org/2000/svg">
<g clip-path="url(#clip0_62_891)">
<path d="M264.25 249.25H266.42V279.742H264.25V249.25Z" fill="white" stroke="black" stroke-width="0.5"/>
<path d="M266.67 261.286H266.662V267.584H266.67V261.286Z" fill="#FF7000"/>
<path d="M266.67 255.176H266.662V261.286H266.67V255.176Z" fill="#FEA401"/>
<path d="M266.67 267.584H266.662V273.825H266.67V267.584Z" fill="#FE4900"/>
<path d="M299 249V280C296.835 279.992 294.67 280.008 292.505 280V267.584H286.083V273.824C283.917 273.824 281.752 273.833 279.587 273.824V267.584H273.157V280H266.662L266.67 279.992V255.176L266.735 255.143L266.67 255.11V249H273.157V255.176H279.652V261.351L283.274 261.416H286.083V255.176H289.843C290.73 255.167 291.617 255.176 292.505 255.176V249H299Z" fill="white"/>
<path d="M266.67 273.824H266.662V279.992H266.67V273.824Z" fill="#FE0207"/>
<path d="M292.255 267.834V279.748C291.746 279.745 291.236 279.747 290.728 279.748C290.516 279.749 290.304 279.75 290.093 279.75V267.834H292.255Z" fill="white" stroke="black" stroke-width="0.5"/>
<path d="M283.663 255.426H285.832V261.166H283.663V255.426Z" fill="white" stroke="black" stroke-width="0.5"/>
<path d="M277.167 267.834H279.337V273.575H277.167V267.834Z" fill="white" stroke="black" stroke-width="0.5"/>
<path d="M290.093 249.25C290.304 249.251 290.516 249.251 290.728 249.252C291.236 249.253 291.746 249.255 292.255 249.252V254.925C292.044 254.925 291.832 254.924 291.621 254.924C291.112 254.922 290.602 254.921 290.093 254.924V249.25Z" fill="white" stroke="black" stroke-width="0.5"/>
<path d="M266.735 255.143L266.67 255.175H266.662V255.11H266.67L266.735 255.143Z" fill="#FE7000"/>
<path d="M266.67 249H266.662V255.11H266.67V249Z" fill="#FECE00"/>
<path d="M266.735 255.143L266.67 255.175H266.662V255.11H266.67L266.735 255.143Z" fill="#FEA200"/>
</g>
<path d="M282 98C282 218 283 159.5 283 239" stroke="#FEA401"/>
<path d="M118 98C118 218 282 159.5 282 239" stroke="#FF7000"/>
<path d="M448 98C448 218 282 159.5 282 239" stroke="#6F6E6B" stroke-dasharray="2 2"/>
<rect x="46.5" y="51.5" width="123" height="46" stroke="#6F6E6B"/>
<g clip-path="url(#clip1_62_891)">
<path d="M61.4 61H56V66.4H61.4V61Z" fill="#FECE00"/>
<path d="M61.4 82.6H56V88H61.4V82.6Z" fill="#FF0008"/>
<path d="M77.6001 82.604V88.004H83.0001V82.604H77.6001Z" fill="#FF0008"/>
<path d="M77.6001 61V66.4H83.0001V61H77.6001Z" fill="#FECE00"/>
<path d="M56 71.8V77.2H61.4V71.8H56Z" fill="#FF6F00"/>
<path d="M61.3999 66.4V71.8H66.7999V66.4H61.3999Z" fill="#FFA301"/>
<path d="M66.7998 71.8V77.2H72.1998V71.8H66.7998Z" fill="#FF6F00"/>
<path d="M72.2002 77.2V82.6H77.6002V77.2H72.2002Z" fill="#FF4800"/>
<path d="M77.6001 71.8V77.2H83.0001V71.8H77.6001Z" fill="#FF6F00"/>
<path d="M72.1998 61H66.7998V66.4H72.1998V61Z" fill="#FECE00"/>
<path d="M77.6002 66.4H72.2002V71.8H77.6002V66.4Z" fill="#FFA301"/>
<path d="M66.7999 77.2H61.3999V82.6H66.7999V77.2Z" fill="#FF4800"/>
<path d="M72.1998 82.6H66.7998V88H72.1998V82.6Z" fill="#FF0008"/>
</g>
<path d="M101.261 79.5V77.868H104.457C105.25 77.868 105.925 77.6867 106.48 77.324C107.035 76.9613 107.46 76.457 107.755 75.811C108.061 75.165 108.214 74.4113 108.214 73.55C108.214 72.6773 108.061 71.918 107.755 71.272C107.46 70.626 107.035 70.1273 106.48 69.776C105.925 69.4133 105.25 69.232 104.457 69.232H101.261V67.6H104.457C105.59 67.6 106.565 67.855 107.381 68.365C108.197 68.8637 108.826 69.5607 109.268 70.456C109.71 71.34 109.931 72.3713 109.931 73.55C109.931 74.7287 109.71 75.7657 109.268 76.661C108.826 77.545 108.197 78.242 107.381 78.752C106.565 79.2507 105.59 79.5 104.457 79.5H101.261ZM100.292 79.5V67.6H101.992V79.5H100.292ZM114.428 79.738C113.85 79.738 113.329 79.6247 112.864 79.398C112.411 79.1713 112.054 78.8597 111.793 78.463C111.533 78.055 111.402 77.5903 111.402 77.069C111.402 76.287 111.674 75.6637 112.218 75.199C112.762 74.723 113.533 74.4453 114.53 74.366L117.828 74.094V75.556L114.819 75.794C114.241 75.8393 113.816 75.964 113.544 76.168C113.272 76.372 113.136 76.6497 113.136 77.001C113.136 77.341 113.284 77.6243 113.578 77.851C113.873 78.0663 114.247 78.174 114.7 78.174C115.176 78.174 115.607 78.0607 115.992 77.834C116.389 77.6073 116.701 77.307 116.927 76.933C117.154 76.5477 117.267 76.134 117.267 75.692V74.298C117.267 73.6973 117.075 73.2043 116.689 72.819C116.315 72.4337 115.817 72.241 115.193 72.241C114.672 72.241 114.236 72.3657 113.884 72.615C113.544 72.8643 113.318 73.193 113.204 73.601H113.017L111.555 73.193C111.782 72.4337 112.213 71.8273 112.847 71.374C113.482 70.9207 114.264 70.694 115.193 70.694C116.383 70.694 117.307 71.0453 117.964 71.748C118.622 72.4393 118.95 73.414 118.95 74.672V79.5H117.386V77.018L117.998 77.205C117.862 77.6697 117.619 78.0947 117.267 78.48C116.927 78.8653 116.514 79.1713 116.026 79.398C115.539 79.6247 115.006 79.738 114.428 79.738ZM123.858 79.5C123.076 79.5 122.441 79.2507 121.954 78.752C121.478 78.2533 121.24 77.579 121.24 76.729V68.688H122.94V76.576C122.94 77.0407 123.047 77.3863 123.263 77.613C123.489 77.8283 123.835 77.936 124.3 77.936H125.252L125.337 78.123V79.5H123.858ZM119.778 72.513V70.949H125.337V72.513H119.778ZM129.503 79.738C128.925 79.738 128.403 79.6247 127.939 79.398C127.485 79.1713 127.128 78.8597 126.868 78.463C126.607 78.055 126.477 77.5903 126.477 77.069C126.477 76.287 126.749 75.6637 127.293 75.199C127.837 74.723 128.607 74.4453 129.605 74.366L132.903 74.094V75.556L129.894 75.794C129.316 75.8393 128.891 75.964 128.619 76.168C128.347 76.372 128.211 76.6497 128.211 77.001C128.211 77.341 128.358 77.6243 128.653 77.851C128.947 78.0663 129.321 78.174 129.775 78.174C130.251 78.174 130.681 78.0607 131.067 77.834C131.463 77.6073 131.775 77.307 132.002 76.933C132.228 76.5477 132.342 76.134 132.342 75.692V74.298C132.342 73.6973 132.149 73.2043 131.764 72.819C131.39 72.4337 130.891 72.241 130.268 72.241C129.746 72.241 129.31 72.3657 128.959 72.615C128.619 72.8643 128.392 73.193 128.279 73.601H128.092L126.63 73.193C126.856 72.4337 127.287 71.8273 127.922 71.374C128.556 70.9207 129.338 70.694 130.268 70.694C131.458 70.694 132.381 71.0453 133.039 71.748C133.696 72.4393 134.025 73.414 134.025 74.672V79.5H132.461V77.018L133.073 77.205C132.937 77.6697 132.693 78.0947 132.342 78.48C132.002 78.8653 131.588 79.1713 131.101 79.398C130.613 79.6247 130.081 79.738 129.503 79.738ZM139.122 79.738C138.204 79.738 137.427 79.5227 136.793 79.092C136.158 78.65 135.739 78.0437 135.535 77.273L137.082 76.882L137.286 76.933C137.399 77.3297 137.631 77.6413 137.983 77.868C138.345 78.0833 138.765 78.191 139.241 78.191C139.705 78.191 140.102 78.089 140.431 77.885C140.759 77.681 140.924 77.409 140.924 77.069C140.924 76.7857 140.827 76.5647 140.635 76.406C140.442 76.236 140.153 76.1057 139.768 76.015L138.17 75.658C137.365 75.4767 136.764 75.182 136.368 74.774C135.971 74.3547 135.773 73.8503 135.773 73.261C135.773 72.751 135.914 72.309 136.198 71.935C136.481 71.5497 136.866 71.2493 137.354 71.034C137.852 70.8187 138.413 70.711 139.037 70.711C139.921 70.711 140.669 70.932 141.281 71.374C141.893 71.8047 142.295 72.4167 142.488 73.21L140.992 73.533L140.805 73.499C140.703 73.1137 140.476 72.8133 140.125 72.598C139.785 72.3713 139.399 72.258 138.969 72.258C138.549 72.258 138.192 72.3487 137.898 72.53C137.614 72.7 137.473 72.9267 137.473 73.21C137.473 73.4367 137.563 73.635 137.745 73.805C137.926 73.9637 138.204 74.0827 138.578 74.162L140.193 74.536C141.009 74.7173 141.615 75.0063 142.012 75.403C142.42 75.7997 142.624 76.321 142.624 76.967C142.624 77.5337 142.471 78.0267 142.165 78.446C141.87 78.854 141.456 79.1713 140.924 79.398C140.402 79.6247 139.802 79.738 139.122 79.738ZM148.141 79.738C147.291 79.738 146.537 79.551 145.88 79.177C145.234 78.7917 144.729 78.259 144.367 77.579C144.004 76.899 143.823 76.1113 143.823 75.216C143.823 74.3207 143.998 73.5387 144.35 72.87C144.712 72.19 145.211 71.663 145.846 71.289C146.492 70.9037 147.234 70.711 148.073 70.711C148.9 70.711 149.62 70.9037 150.232 71.289C150.855 71.6743 151.337 72.2183 151.677 72.921C152.028 73.6123 152.204 74.4227 152.204 75.352V75.607L151.949 75.862H144.69V74.366H151.388L150.521 74.706C150.498 74.196 150.373 73.7597 150.147 73.397C149.931 73.0343 149.642 72.7567 149.28 72.564C148.928 72.36 148.532 72.258 148.09 72.258C147.614 72.258 147.177 72.3713 146.781 72.598C146.384 72.8247 146.072 73.142 145.846 73.55C145.63 73.9467 145.523 74.4113 145.523 74.944V75.454C145.523 75.9753 145.636 76.4457 145.863 76.865C146.089 77.273 146.401 77.596 146.798 77.834C147.194 78.072 147.642 78.191 148.141 78.191C148.617 78.191 149.036 78.072 149.399 77.834C149.773 77.5847 150.067 77.256 150.283 76.848H150.487L151.864 77.443C151.535 78.157 151.048 78.718 150.402 79.126C149.756 79.534 149.002 79.738 148.141 79.738ZM156.994 79.5C156.212 79.5 155.578 79.2507 155.09 78.752C154.614 78.2533 154.376 77.579 154.376 76.729V68.688H156.076V76.576C156.076 77.0407 156.184 77.3863 156.399 77.613C156.626 77.8283 156.972 77.936 157.436 77.936H158.388L158.473 78.123V79.5H156.994ZM152.914 72.513V70.949H158.473V72.513H152.914Z" fill="white"/>
<rect x="211.5" y="51.5" width="123" height="46" stroke="#6F6E6B"/>
<g clip-path="url(#clip2_62_891)">
<path d="M226.4 61H221V66.4H226.4V61Z" fill="#FECE00"/>
<path d="M226.4 82.6H221V88H226.4V82.6Z" fill="#FF0008"/>
<path d="M242.6 82.604V88.004H248V82.604H242.6Z" fill="#FF0008"/>
<path d="M242.6 61V66.4H248V61H242.6Z" fill="#FECE00"/>
<path d="M221 71.8V77.2H226.4V71.8H221Z" fill="#FF6F00"/>
<path d="M226.4 66.4V71.8H231.8V66.4H226.4Z" fill="#FFA301"/>
<path d="M231.8 71.8V77.2H237.2V71.8H231.8Z" fill="#FF6F00"/>
<path d="M237.2 77.2V82.6H242.6V77.2H237.2Z" fill="#FF4800"/>
<path d="M242.6 71.8V77.2H248V71.8H242.6Z" fill="#FF6F00"/>
<path d="M237.2 61H231.8V66.4H237.2V61Z" fill="#FECE00"/>
<path d="M242.6 66.4H237.2V71.8H242.6V66.4Z" fill="#FFA301"/>
<path d="M231.8 77.2H226.4V82.6H231.8V77.2Z" fill="#FF4800"/>
<path d="M237.2 82.6H231.8V88H237.2V82.6Z" fill="#FF0008"/>
</g>
<path d="M266.261 79.5V77.868H269.457C270.25 77.868 270.925 77.6867 271.48 77.324C272.035 76.9613 272.46 76.457 272.755 75.811C273.061 75.165 273.214 74.4113 273.214 73.55C273.214 72.6773 273.061 71.918 272.755 71.272C272.46 70.626 272.035 70.1273 271.48 69.776C270.925 69.4133 270.25 69.232 269.457 69.232H266.261V67.6H269.457C270.59 67.6 271.565 67.855 272.381 68.365C273.197 68.8637 273.826 69.5607 274.268 70.456C274.71 71.34 274.931 72.3713 274.931 73.55C274.931 74.7287 274.71 75.7657 274.268 76.661C273.826 77.545 273.197 78.242 272.381 78.752C271.565 79.2507 270.59 79.5 269.457 79.5H266.261ZM265.292 79.5V67.6H266.992V79.5H265.292ZM279.428 79.738C278.85 79.738 278.329 79.6247 277.864 79.398C277.411 79.1713 277.054 78.8597 276.793 78.463C276.533 78.055 276.402 77.5903 276.402 77.069C276.402 76.287 276.674 75.6637 277.218 75.199C277.762 74.723 278.533 74.4453 279.53 74.366L282.828 74.094V75.556L279.819 75.794C279.241 75.8393 278.816 75.964 278.544 76.168C278.272 76.372 278.136 76.6497 278.136 77.001C278.136 77.341 278.284 77.6243 278.578 77.851C278.873 78.0663 279.247 78.174 279.7 78.174C280.176 78.174 280.607 78.0607 280.992 77.834C281.389 77.6073 281.701 77.307 281.927 76.933C282.154 76.5477 282.267 76.134 282.267 75.692V74.298C282.267 73.6973 282.075 73.2043 281.689 72.819C281.315 72.4337 280.817 72.241 280.193 72.241C279.672 72.241 279.236 72.3657 278.884 72.615C278.544 72.8643 278.318 73.193 278.204 73.601H278.017L276.555 73.193C276.782 72.4337 277.213 71.8273 277.847 71.374C278.482 70.9207 279.264 70.694 280.193 70.694C281.383 70.694 282.307 71.0453 282.964 71.748C283.622 72.4393 283.95 73.414 283.95 74.672V79.5H282.386V77.018L282.998 77.205C282.862 77.6697 282.619 78.0947 282.267 78.48C281.927 78.8653 281.514 79.1713 281.026 79.398C280.539 79.6247 280.006 79.738 279.428 79.738ZM288.858 79.5C288.076 79.5 287.441 79.2507 286.954 78.752C286.478 78.2533 286.24 77.579 286.24 76.729V68.688H287.94V76.576C287.94 77.0407 288.047 77.3863 288.263 77.613C288.489 77.8283 288.835 77.936 289.3 77.936H290.252L290.337 78.123V79.5H288.858ZM284.778 72.513V70.949H290.337V72.513H284.778ZM294.503 79.738C293.925 79.738 293.403 79.6247 292.939 79.398C292.485 79.1713 292.128 78.8597 291.868 78.463C291.607 78.055 291.477 77.5903 291.477 77.069C291.477 76.287 291.749 75.6637 292.293 75.199C292.837 74.723 293.607 74.4453 294.605 74.366L297.903 74.094V75.556L294.894 75.794C294.316 75.8393 293.891 75.964 293.619 76.168C293.347 76.372 293.211 76.6497 293.211 77.001C293.211 77.341 293.358 77.6243 293.653 77.851C293.947 78.0663 294.321 78.174 294.775 78.174C295.251 78.174 295.681 78.0607 296.067 77.834C296.463 77.6073 296.775 77.307 297.002 76.933C297.228 76.5477 297.342 76.134 297.342 75.692V74.298C297.342 73.6973 297.149 73.2043 296.764 72.819C296.39 72.4337 295.891 72.241 295.268 72.241C294.746 72.241 294.31 72.3657 293.959 72.615C293.619 72.8643 293.392 73.193 293.279 73.601H293.092L291.63 73.193C291.856 72.4337 292.287 71.8273 292.922 71.374C293.556 70.9207 294.338 70.694 295.268 70.694C296.458 70.694 297.381 71.0453 298.039 71.748C298.696 72.4393 299.025 73.414 299.025 74.672V79.5H297.461V77.018L298.073 77.205C297.937 77.6697 297.693 78.0947 297.342 78.48C297.002 78.8653 296.588 79.1713 296.101 79.398C295.613 79.6247 295.081 79.738 294.503 79.738ZM304.122 79.738C303.204 79.738 302.427 79.5227 301.793 79.092C301.158 78.65 300.739 78.0437 300.535 77.273L302.082 76.882L302.286 76.933C302.399 77.3297 302.631 77.6413 302.983 77.868C303.345 78.0833 303.765 78.191 304.241 78.191C304.705 78.191 305.102 78.089 305.431 77.885C305.759 77.681 305.924 77.409 305.924 77.069C305.924 76.7857 305.827 76.5647 305.635 76.406C305.442 76.236 305.153 76.1057 304.768 76.015L303.17 75.658C302.365 75.4767 301.764 75.182 301.368 74.774C300.971 74.3547 300.773 73.8503 300.773 73.261C300.773 72.751 300.914 72.309 301.198 71.935C301.481 71.5497 301.866 71.2493 302.354 71.034C302.852 70.8187 303.413 70.711 304.037 70.711C304.921 70.711 305.669 70.932 306.281 71.374C306.893 71.8047 307.295 72.4167 307.488 73.21L305.992 73.533L305.805 73.499C305.703 73.1137 305.476 72.8133 305.125 72.598C304.785 72.3713 304.399 72.258 303.969 72.258C303.549 72.258 303.192 72.3487 302.898 72.53C302.614 72.7 302.473 72.9267 302.473 73.21C302.473 73.4367 302.563 73.635 302.745 73.805C302.926 73.9637 303.204 74.0827 303.578 74.162L305.193 74.536C306.009 74.7173 306.615 75.0063 307.012 75.403C307.42 75.7997 307.624 76.321 307.624 76.967C307.624 77.5337 307.471 78.0267 307.165 78.446C306.87 78.854 306.456 79.1713 305.924 79.398C305.402 79.6247 304.802 79.738 304.122 79.738ZM313.141 79.738C312.291 79.738 311.537 79.551 310.88 79.177C310.234 78.7917 309.729 78.259 309.367 77.579C309.004 76.899 308.823 76.1113 308.823 75.216C308.823 74.3207 308.998 73.5387 309.35 72.87C309.712 72.19 310.211 71.663 310.846 71.289C311.492 70.9037 312.234 70.711 313.073 70.711C313.9 70.711 314.62 70.9037 315.232 71.289C315.855 71.6743 316.337 72.2183 316.677 72.921C317.028 73.6123 317.204 74.4227 317.204 75.352V75.607L316.949 75.862H309.69V74.366H316.388L315.521 74.706C315.498 74.196 315.373 73.7597 315.147 73.397C314.931 73.0343 314.642 72.7567 314.28 72.564C313.928 72.36 313.532 72.258 313.09 72.258C312.614 72.258 312.177 72.3713 311.781 72.598C311.384 72.8247 311.072 73.142 310.846 73.55C310.63 73.9467 310.523 74.4113 310.523 74.944V75.454C310.523 75.9753 310.636 76.4457 310.863 76.865C311.089 77.273 311.401 77.596 311.798 77.834C312.194 78.072 312.642 78.191 313.141 78.191C313.617 78.191 314.036 78.072 314.399 77.834C314.773 77.5847 315.067 77.256 315.283 76.848H315.487L316.864 77.443C316.535 78.157 316.048 78.718 315.402 79.126C314.756 79.534 314.002 79.738 313.141 79.738ZM321.994 79.5C321.212 79.5 320.578 79.2507 320.09 78.752C319.614 78.2533 319.376 77.579 319.376 76.729V68.688H321.076V76.576C321.076 77.0407 321.184 77.3863 321.399 77.613C321.626 77.8283 321.972 77.936 322.436 77.936H323.388L323.473 78.123V79.5H321.994ZM317.914 72.513V70.949H323.473V72.513H317.914Z" fill="white"/>
<rect x="395.5" y="51.5" width="83" height="46" stroke="#6F6E6B"/>
<g clip-path="url(#clip3_62_891)">
<path d="M414.6 66.5H411.4V69.7H414.6V66.5Z" fill="white"/>
<path d="M414.6 69.7H411.4V72.9H414.6V69.7Z" fill="white"/>
<path d="M414.6 72.9H411.4V76.1H414.6V72.9Z" fill="white"/>
<path d="M414.6 76.1H411.4V79.3H414.6V76.1Z" fill="white"/>
<path d="M414.6 79.3H411.4V82.5H414.6V79.3Z" fill="white"/>
<path d="M421 76.1V72.9H417.8V76.1H421Z" fill="white"/>
<path d="M417.8 76.1V72.9H414.6V76.1H417.8Z" fill="white"/>
<path d="M411.4 76.1V72.9H408.2V76.1H411.4Z" fill="white"/>
<path d="M408.2 76.1V72.9H405V76.1H408.2Z" fill="white"/>
</g>
<path d="M445.976 79.5L441.675 67.957L441.573 67.6H443.273L447.795 79.364V79.5H445.976ZM437.051 79.5V79.364L441.573 67.6H443.273L443.137 67.957L438.836 79.5H437.051ZM438.921 76.559L439.431 74.927H445.568L446.078 76.559H438.921ZM452.567 79.738C451.807 79.738 451.116 79.5453 450.493 79.16C449.881 78.7633 449.393 78.2307 449.031 77.562C448.668 76.882 448.487 76.1057 448.487 75.233C448.487 74.349 448.668 73.567 449.031 72.887C449.393 72.207 449.881 71.6743 450.493 71.289C451.116 70.9037 451.807 70.711 452.567 70.711C453.179 70.711 453.734 70.8357 454.233 71.085C454.731 71.3343 455.151 71.6687 455.491 72.088C455.831 72.496 456.074 72.9607 456.222 73.482V76.984C456.074 77.494 455.831 77.9587 455.491 78.378C455.151 78.786 454.731 79.1147 454.233 79.364C453.734 79.6133 453.179 79.738 452.567 79.738ZM452.771 78.157C453.292 78.157 453.751 78.0323 454.148 77.783C454.544 77.5337 454.856 77.188 455.083 76.746C455.309 76.304 455.423 75.794 455.423 75.216C455.423 74.638 455.309 74.128 455.083 73.686C454.856 73.244 454.544 72.904 454.148 72.666C453.751 72.4167 453.292 72.292 452.771 72.292C452.272 72.292 451.824 72.4167 451.428 72.666C451.042 72.904 450.736 73.244 450.51 73.686C450.294 74.128 450.187 74.638 450.187 75.216C450.187 75.794 450.294 76.304 450.51 76.746C450.736 77.188 451.042 77.5337 451.428 77.783C451.824 78.0323 452.272 78.157 452.771 78.157ZM455.491 79.5V76.644L455.831 75.216L455.406 73.788V67.26L457.055 67.056L457.106 67.192V79.5H455.491ZM463.042 79.738C462.283 79.738 461.592 79.5453 460.968 79.16C460.356 78.7633 459.869 78.2307 459.506 77.562C459.144 76.882 458.962 76.1057 458.962 75.233C458.962 74.349 459.144 73.567 459.506 72.887C459.869 72.207 460.356 71.6743 460.968 71.289C461.592 70.9037 462.283 70.711 463.042 70.711C463.654 70.711 464.21 70.8357 464.708 71.085C465.207 71.3343 465.626 71.6687 465.966 72.088C466.306 72.496 466.55 72.9607 466.697 73.482V76.984C466.55 77.494 466.306 77.9587 465.966 78.378C465.626 78.786 465.207 79.1147 464.708 79.364C464.21 79.6133 463.654 79.738 463.042 79.738ZM463.246 78.157C463.768 78.157 464.227 78.0323 464.623 77.783C465.02 77.5337 465.332 77.188 465.558 76.746C465.785 76.304 465.898 75.794 465.898 75.216C465.898 74.638 465.785 74.128 465.558 73.686C465.332 73.244 465.02 72.904 464.623 72.666C464.227 72.4167 463.768 72.292 463.246 72.292C462.748 72.292 462.3 72.4167 461.903 72.666C461.518 72.904 461.212 73.244 460.985 73.686C460.77 74.128 460.662 74.638 460.662 75.216C460.662 75.794 460.77 76.304 460.985 76.746C461.212 77.188 461.518 77.5337 461.903 77.783C462.3 78.0323 462.748 78.157 463.246 78.157ZM465.966 79.5V76.644L466.306 75.216L465.881 73.788V67.26L467.53 67.056L467.581 67.192V79.5H465.966Z" fill="white"/>
<defs>
<clipPath id="clip0_62_891">
<rect width="35" height="31" fill="white" transform="translate(264 249)"/>
</clipPath>
<clipPath id="clip1_62_891">
<rect width="27" height="27" fill="white" transform="translate(56 61)"/>
</clipPath>
<clipPath id="clip2_62_891">
<rect width="27" height="27" fill="white" transform="translate(221 61)"/>
</clipPath>
<clipPath id="clip3_62_891">
<rect width="16" height="16" fill="white" transform="translate(405 66.5)"/>
</clipPath>
</defs>
</svg>
