<svg width="519" height="392" viewBox="0 0 519 392" fill="none" xmlns="http://www.w3.org/2000/svg">
<g clip-path="url(#clip0_70_2675)">
<path d="M354.517 50.6965C356.641 50.7325 358.781 50.6726 360.905 50.6965V56.6843L366.893 57.0835V50.6965H373.281V31.5356H379.668V25.1487H392.444V19.1609H404.221C404.265 19.1609 404.82 18.606 404.82 18.5621V6.98574C404.82 5.61255 398.983 7.00171 398.616 6.40692C398.36 5.42892 398.089 0 399.031 0H417.595C417.611 0.966029 417.871 6.38697 418.593 6.38697H430.371V12.1752C430.371 13.6921 436.758 11.8119 436.758 12.9735V19.1609H430.371V56.6843H436.16C436.204 56.6843 436.758 57.2392 436.758 57.2831V63.0713H442.547C442.591 63.0713 443.146 63.6261 443.146 63.6701V75.8452H449.135L449.534 88.6191H455.522V100.794C455.522 100.838 456.077 101.393 456.121 101.393H461.91V120.155H467.699C467.743 120.155 468.298 120.71 468.298 120.754V126.542H461.91V132.929H480.674V138.916H474.885C473.975 138.916 473.975 145.703 474.885 145.703H487.062L487.461 151.69H493.25C493.294 151.69 493.848 152.245 493.848 152.289V158.077H506.225V163.866C506.225 163.909 506.78 164.464 506.823 164.464H519V170.652C519 170.696 518.445 171.251 518.401 171.251H512.612V177.039C512.612 177.326 512.129 177.474 511.798 177.474C510.045 177.478 501.562 176.847 500.643 177.418C499.51 178.124 500.005 182.336 499.841 183.625H488.463C488.331 183.625 487.856 184.152 487.465 184.024V190.012H462.912C461.231 190.012 462.653 195.329 461.914 196.399H449.538V215.161H437.361C437.317 215.161 436.762 215.716 436.762 215.76V227.536L443.15 227.935V239.91C443.541 239.783 444.016 240.31 444.148 240.31H455.926V246.098C455.926 247.599 461.483 245.766 461.842 246.964C462.189 248.776 462.772 258.189 462.142 259.095C461.371 260.201 456.081 258.6 455.586 260.125C455.95 265.382 454.907 271.737 455.51 276.855C455.558 277.258 455.694 278.232 456.129 278.232H461.918V284.619H468.306V290.407C468.306 290.451 468.861 291.006 468.905 291.006H474.693V297.393H480.682V303.181C480.682 303.225 481.237 303.78 481.281 303.78H493.457V322.542H474.693V328.33C474.693 328.769 473.719 328.901 473.316 328.949C468.657 329.496 455.179 329.496 450.52 328.949C450.117 328.901 449.143 328.765 449.143 328.33V322.542H442.755V316.155L424.949 316.534C424.618 316.626 423.991 316.123 423.991 315.955V310.167H418.202C418.158 310.167 417.603 309.612 417.603 309.568V303.78H404.828V297.393H398.84V291.006H379.676V278.631H386.064V265.857H379.676V271.845H368.298C365.644 271.845 367.735 277.522 366.921 278.049C364.813 277.981 362.274 278.635 360.314 278.663C359.459 278.675 354.525 277.47 354.525 278.831V284.619H373.289V291.006H367.3C366.246 292.092 367.971 297.393 366.701 297.393H354.725C354.078 297.393 354.102 293.856 354.098 293.182C354.098 292.647 354.737 291.006 353.926 291.006H348.137V285.218C348.137 285.174 347.582 284.619 347.538 284.619H335.362V278.631C333.885 278.683 330.092 277.462 329.17 279.027C328.168 280.727 329.633 288.531 328.974 291.006H322.986C323.113 291.397 322.586 291.872 322.586 292.004V303.78H316.598V315.955C316.598 317.364 311.2 315.648 310.21 316.554V328.929H316.598V335.316H322.586V341.703H310.21C310.079 342.677 310.633 347.69 309.611 347.69H297.435V341.703H291.646C290.624 341.703 291.179 346.716 291.047 347.69H285.258C285.214 347.69 284.66 348.245 284.66 348.289V354.077H272.283V366.851H284.66L285.059 379.625H272.283V386.012H278.671V392H265.896V386.012C263.84 385.338 261.64 385.685 259.508 385.613V373.238H253.12V361.063C253.12 359.977 247.763 360.836 246.733 360.464V335.316H240.345V328.929H227.57V322.941L221.956 322.765C220.978 322.083 222.252 316.554 220.982 316.554H208.806V297.992C208.806 297.948 208.251 297.393 208.207 297.393H190.042V316.155H195.831C195.875 316.155 196.43 316.71 196.43 316.754V322.542H202.218C203.332 322.542 202.474 325.057 202.498 325.536C202.638 328.753 203.057 332.046 202.817 335.316H215.193V341.703H227.969V347.69H234.356V354.477L221.581 354.077V373.238H215.193V379.625H202.418V385.613C199.484 385.314 195.847 386.008 193.012 385.645C192.928 385.633 191.926 384.974 191.639 384.815C191.567 384.148 191.052 383.629 191.419 382.831C192.03 381.509 193.519 382.547 193.631 382.42C193.723 382.312 193.715 380.132 194.03 379.629L190.633 382.416C189.974 384.356 190.481 384.172 191.635 384.815C191.663 385.074 191.623 385.35 191.635 385.609H190.042V379.625H184.253C184.209 379.625 183.654 379.07 183.654 379.026V373.238C189.148 373.809 196.138 372.484 201.444 373.214C202.406 373.346 202.618 373.801 203.412 374.041L203.212 373.242H209.205L208.854 367.298C209.832 366.428 214.93 367.119 215.197 366.851C215.357 366.696 215.042 364.572 215.197 363.921C215.273 363.61 216.008 363.654 216.016 363.442C216.032 362.772 214.806 361.518 215.193 360.46H209.205C209.133 358.329 209.48 356.129 208.806 354.073H202.817C203.276 347.595 202.909 347.231 196.43 347.686V341.699H190.042V335.312H183.654V328.925H177.266V322.538H170.879V310.163H164.491V303.776H152.115V310.163H139.34V316.55L132.952 316.151V310.163H114.188V322.538H101.413V328.925H82.6488V335.312H76.2611V354.073L57.4972 354.473V360.46L19.1711 360.86V348.086L12.8073 347.666C12.6955 345.663 13.0509 343.631 12.3841 341.699H0V316.75C0 316.706 0.554931 316.151 0.598846 316.151H6.38769V310.363C6.38769 310.319 6.94262 309.764 6.98654 309.764H12.7754V291.601C12.7754 291.557 13.3303 291.002 13.3742 291.002H19.1631V278.627H38.3262V284.615H50.7023V291.002H62.8788C62.9228 291.002 63.4777 291.557 63.4777 291.601V297.389H76.2531V291.002H82.6408C82.2615 287.649 81.8303 282.951 82.2216 279.605C82.2695 279.202 82.4052 278.228 82.8404 278.228H88.6292V265.853H82.8404C82.7965 265.853 82.2415 265.299 82.2415 265.255V253.08H75.8538V247.291C75.8538 246.269 70.8395 246.824 69.8654 246.693V240.306H88.6292C89.3119 241.272 87.8707 246.693 89.2281 246.693H95.0169V233.919H101.405V240.306H114.18V233.919H120.168V227.931H107.792V221.544H76.2531V215.157H88.6292V208.77H82.2415C82.5609 207.812 81.8184 202.383 82.8404 202.383H88.6292V196.595C88.6292 196.551 89.1842 195.996 89.2281 195.996H101.405V177.234H95.0169V170.847H101.405V164.46H95.0169V152.285C95.0169 152.241 95.5719 151.686 95.6158 151.686H101.405V145.699C103.525 145.639 105.676 145.782 107.792 145.699C107.78 143.575 107.8 141.435 107.792 139.312H120.168V145.299C117.593 145.1 115.006 145.455 112.451 145.551C110.922 145.607 109.365 145.635 107.792 145.699C107.8 147.607 107.796 149.527 107.768 151.439C107.816 151.615 109.082 152.086 109.19 152.086H120.168V164.46H107.792V170.847H114.18V183.022C114.18 184.044 119.194 183.49 120.168 183.621V201.784C120.168 201.828 120.723 202.383 120.767 202.383H126.955V215.157H120.568V227.532H139.332V221.544L142.33 221.121L150.714 221.556C151.049 221.612 151.708 221.141 151.708 220.945V215.157H145.719V208.77H176.66C176.704 208.77 177.258 208.215 177.258 208.171V170.847H183.646V176.835H190.034V189.609H196.022L196.422 183.222H202.41V164.86C200.338 163.957 198.533 164.967 196.422 164.86V170.847H189.635V165.059C189.635 165.015 190.19 164.46 190.233 164.46H196.422V152.285C196.422 152.241 195.867 151.686 195.823 151.686H190.034V158.073H177.258V164.46H170.871V158.073H164.483V152.285C164.483 152.241 165.038 151.686 165.082 151.686H170.871V114.363C170.871 114.319 171.426 113.764 171.47 113.764H183.047C183.167 113.764 183.355 114.271 183.646 114.163V107.776H195.823C195.867 107.776 196.422 107.221 196.422 107.177V101.389H202.41V95.6009C202.41 95.557 202.965 95.0021 203.009 95.0021H215.185V76.44C215.185 76.3482 215.621 75.949 215.82 75.9011L221.573 75.8412V69.8534C222.563 68.9473 227.961 70.6638 227.961 69.2547V63.4665H234.348V57.0795H240.736V51.2913C240.736 51.2474 241.291 50.6925 241.335 50.6925H247.124V44.7048H252.913C252.957 44.7048 253.512 44.1499 253.512 44.106V38.3178H259.5V31.9308H265.888V25.5439H271.876C271.948 27.6755 271.601 29.875 272.275 31.9308H291.039V44.7048C293.131 44.7766 294.664 46.6328 296.401 44.6728L321.924 44.7606C323.197 45.1758 322.335 49.475 322.578 50.6925H341.742V69.4543H335.354V75.8412H328.966V69.8534H310.202V75.8412H315.991C316.035 75.8412 316.59 76.3961 316.59 76.44V88.6152H322.978V95.0021H335.354C335.354 92.8785 335.354 90.7388 335.354 88.6152C333.23 88.5992 331.09 88.6271 328.966 88.6152V82.2282H335.354V88.6152C337.059 88.6271 347.179 88.8427 347.754 88.4395C348.544 87.8886 348.125 83.3379 347.73 82.2282H341.742V69.8534H348.129V63.4665C350.257 63.4505 352.417 63.6581 354.473 63.0234C354.561 58.9198 354.509 54.7962 354.517 50.6925C352.393 50.6566 350.253 50.7165 348.129 50.6925V37.9186H354.517C354.513 42.1699 354.525 46.4412 354.517 50.6925V50.6965ZM360.905 63.4705C358.845 62.8677 356.585 62.8677 354.517 63.4705V69.4582C355.487 69.9213 360.905 70.2646 360.905 69.2587V63.4705ZM196.422 202.387C199.883 202.451 203.616 202.902 207.025 202.81C207.708 202.79 208.199 202.682 208.798 202.387V214.562C208.798 214.606 209.353 215.161 209.397 215.161H215.185V208.774H221.573V202.387H240.137C240.181 202.387 240.736 202.942 240.736 202.986V208.774H246.725V196H259.5V189.613H253.112V183.625H259.5V170.851H278.663V164.464H272.275V152.09H297.431L297.491 146.337C297.535 146.134 297.934 145.703 298.03 145.703H310.606L310.202 138.912C308.29 139.815 306.685 138.881 304.837 138.897C302.321 138.92 299.938 139.439 297.431 139.312V132.925H291.642C290.265 132.925 291.642 139.164 291.063 139.523L279.474 139.503C277.485 140.501 279.837 145.299 278.467 145.299H265.892V139.312H253.116V113.764H259.504V107.776H265.892V95.0021H272.279V88.6152H265.892V82.2282H259.504V88.6152H253.116V107.776H246.729C246.992 109.96 247.527 111.995 246.729 114.163H240.74V120.151H234.352V139.312H240.74V157.874C240.74 157.966 240.305 158.365 240.105 158.413L234.352 158.473C234.221 159.447 234.78 164.464 233.754 164.464H227.965V189.613H221.577V183.226H215.189V196H208.802V190.012H202.813V196H196.426C196.126 198.136 196.426 200.275 196.426 202.387C194.302 202.347 192.162 202.403 190.038 202.387C190.022 201.349 190.377 196 189.439 196H183.65V202.387C185.774 202.399 187.914 202.371 190.038 202.387C190.066 204.511 190.018 206.65 190.038 208.774H196.426C196.426 206.65 196.426 204.511 196.426 202.387H196.422ZM195.22 383.613C195.627 383.214 194.441 382.012 194.026 382.42C193.611 382.827 194.805 384.02 195.22 383.613ZM195.823 384.016V384.415C196.082 384.284 196.082 384.148 195.823 384.016Z" fill="#2E2E2E"/>
<path d="M129.4 263H124V268.4H129.4V263Z" fill="#FE0207"/>
<path d="M224.4 243H219V248.4H224.4V243Z" fill="#FECE00"/>
<path d="M278.4 308H273V313.4H278.4V308Z" fill="#FFA301"/>
<path d="M189.4 318H184V323.4H189.4V318Z" fill="#FE4900"/>
<path d="M76.4 323H71V328.4H76.4V323Z" fill="#FECE00"/>
<path d="M117.4 207H112V212.4H117.4V207Z" fill="#FEA401"/>
<path d="M219.4 158H214V163.4H219.4V158Z" fill="#FFA301"/>
<path d="M74 327.5C79.4203 299.213 88.7053 261.922 98.7846 243C108.54 224.685 119.04 223.578 127.5 264.5" stroke="#FECE00"/>
<path d="M187 321C181.022 294.656 170.783 259.927 159.667 242.305C148.909 225.248 137.329 224.217 128 262.328" stroke="#FE4900"/>
<path d="M222.5 245.5C212.267 225.888 210.5 208.5 186.5 196.5C152.5 191 137.5 224.5 126 265.5" stroke="#FECE00"/>
<path d="M187 322C199.167 282.833 234.1 225.7 276.5 310.5" stroke="#FEA401"/>
<path d="M115 210C132.667 164.5 178.1 90.9001 218.5 160.5" stroke="#FEA401"/>
</g>
<defs>
<clipPath id="clip0_70_2675">
<rect width="519" height="392" fill="white"/>
</clipPath>
</defs>
</svg>
