<svg width="32" height="33" viewBox="0 0 32 33" fill="none" xmlns="http://www.w3.org/2000/svg">
<g clip-path="url(#clip0_69_2496)">
<path d="M7.99886 24.6677H0V32.6666H7.99886V24.6677Z" fill="#FE0207"/>
<path d="M7.99886 16.6643H0V24.6632H7.99886V16.6643Z" fill="#FE4900"/>
<path d="M15.9976 24.6677H7.99878V32.6666H15.9976V24.6677Z" fill="#FE0207"/>
<path d="M15.9976 16.6643H7.99878V24.6632H15.9976V16.6643Z" fill="#FE4900"/>
<path d="M15.9976 8.66553H7.99878V16.6644H15.9976V8.66553Z" fill="#FF7000"/>
<path d="M15.9976 0.666626H7.99878V8.66549H15.9976V0.666626Z" fill="#FEA401"/>
<path d="M24.0011 16.6643H16.0022V24.6632H24.0011V16.6643Z" fill="#FE4900"/>
<path d="M32.0001 16.6643H24.0012V24.6632H32.0001V16.6643Z" fill="#FE4900"/>
<path d="M24.0011 8.66553H16.0022V16.6644H24.0011V8.66553Z" fill="#FF7000"/>
<path d="M32.0001 8.66553H24.0012V16.6644H32.0001V8.66553Z" fill="#FF7000"/>
<path d="M24.0011 0.666626H16.0022V8.66549H24.0011V0.666626Z" fill="#FEA401"/>
<path d="M32.0001 0.666626H24.0012V8.66549H32.0001V0.666626Z" fill="#FEA401"/>
</g>
<defs>
<clipPath id="clip0_69_2496">
<rect width="32" height="32" fill="white" transform="translate(0 0.666626)"/>
</clipPath>
</defs>
</svg>
