<svg width="81" height="33" viewBox="0 0 81 33" fill="none" xmlns="http://www.w3.org/2000/svg">
<g clip-path="url(#clip0_55_433)">
<path d="M0.5 30.1052H16.0546V32.3254H0.5V30.1052Z" fill="#1C1C1B"/>
<path d="M0.5 25.8464H16.0546V28.0745H0.5V25.8464Z" fill="#1C1C1B"/>
<path d="M4.9375 21.5955H11.6094V23.8237H4.9375V21.5955Z" fill="#1C1C1B"/>
<path d="M4.9375 17.3447H11.6094V19.5729H4.9375V17.3447Z" fill="#1C1C1B"/>
<path d="M4.9375 13.0938H11.6094V15.322H4.9375V13.0938Z" fill="#1C1C1B"/>
<path d="M4.9375 8.83507H11.6094V11.0632H4.9375V8.83507Z" fill="#1C1C1B"/>
<path d="M16.0546 4.58415H0.5V6.81231H16.0546V4.58415Z" fill="#1C1C1B"/>
<path d="M16.0546 0.333328H0.5V2.56149H16.0546V0.333328Z" fill="#1C1C1B"/>
<path d="M18.2734 28.0745H42.1958C42.5998 27.3871 42.901 26.6365 43.0833 25.8464H18.2734V28.0745Z" fill="#1C1C1B"/>
<path d="M40.3336 17.3447H22.7188V19.5729H42.1958C41.6886 18.7195 41.0626 17.9689 40.3336 17.3447Z" fill="#1C1C1B"/>
<path d="M22.7188 13.0938V15.322H40.3336C41.0785 14.6977 41.7044 13.9471 42.1958 13.0938H22.7188Z" fill="#1C1C1B"/>
<path d="M42.1958 4.58415H18.2734V6.81231H43.0833C42.8773 6.02218 42.5762 5.27162 42.1958 4.58415Z" fill="#1C1C1B"/>
<path d="M34.8424 0.333328H18.2734V2.56149H40.5555C39.0658 1.18664 37.0453 0.333328 34.8424 0.333328Z" fill="#1C1C1B"/>
<path d="M29.3827 8.83507H22.7188V11.0632H29.3827V8.83507Z" fill="#1C1C1B"/>
<path d="M36.0547 11.0632H43.0277C43.2258 10.3521 43.3288 9.60151 43.3288 8.83507H36.0547V11.0632Z" fill="#1C1C1B"/>
<path d="M22.7188 21.5955H29.3827V23.8237H22.7188V21.5955Z" fill="#1C1C1B"/>
<path d="M36.0547 21.5955V23.8237H43.3288C43.3288 23.0573 43.2258 22.3067 43.0277 21.5955H36.0547Z" fill="#1C1C1B"/>
<path d="M18.2734 32.3096L34.8424 32.3333C37.0611 32.3333 39.0658 31.48 40.5634 30.1052H18.2734V32.3096Z" fill="#1C1C1B"/>
<path d="M44.9453 30.1052H56.0546V32.3254H44.9453V30.1052Z" fill="#1C1C1B"/>
<path d="M44.9453 25.8464H56.0546V28.0745H44.9453V25.8464Z" fill="#1C1C1B"/>
<path d="M49.3828 21.5955H56.0547V23.8237H49.3828V21.5955Z" fill="#1C1C1B"/>
<path d="M49.3828 17.3447H56.0547V19.5729H49.3828V17.3447Z" fill="#1C1C1B"/>
<path d="M59.145 4.58415H44.9453V6.81231H59.9135L59.145 4.58415Z" fill="#1C1C1B"/>
<path d="M57.6711 0.333328H44.9453V2.56149H58.4397L57.6711 0.333328Z" fill="#1C1C1B"/>
<path d="M69.3828 30.1052H80.5001V32.3254H69.3828V30.1052Z" fill="#1C1C1B"/>
<path d="M69.3828 25.8464H80.5001V28.0745H69.3828V25.8464Z" fill="#1C1C1B"/>
<path d="M69.3828 21.5955H76.0547V23.8237H69.3828V21.5955Z" fill="#1C1C1B"/>
<path d="M69.3828 17.3447H76.0547V19.5729H69.3828V17.3447Z" fill="#1C1C1B"/>
<path d="M69.3828 15.322H76.0547V13.0938H69.3828H63.3448L62.7188 14.8953L62.0928 13.0938H56.0547H49.3828V15.322H56.0547V13.2755L56.76 15.322H68.6776L69.3828 13.2755V15.322Z" fill="#1C1C1B"/>
<path d="M76.0545 8.83507H64.8184L64.0498 11.0632H76.0545V8.83507Z" fill="#1C1C1B"/>
<path d="M67.774 0.333328L67.0054 2.56149H80.4999V0.333328H67.774Z" fill="#1C1C1B"/>
<path d="M62.7188 32.3096L63.4874 30.1052H61.9502L62.7188 32.3096Z" fill="#1C1C1B"/>
<path d="M61.2449 28.0745H64.1926L64.985 25.8464H60.4604L61.2449 28.0745Z" fill="#1C1C1B"/>
<path d="M59.7474 23.8237H65.6903L66.4748 21.5955H58.9629L59.7474 23.8237Z" fill="#1C1C1B"/>
<path d="M58.2574 19.5729H67.1876L67.9484 17.3447H57.4888L58.2574 19.5729Z" fill="#1C1C1B"/>
<path d="M49.3828 11.0632H61.3875L60.619 8.83507H49.3828V11.0632Z" fill="#1C1C1B"/>
<path d="M65.5317 6.81231H80.5001V4.58415H66.2925L65.5317 6.81231Z" fill="#1C1C1B"/>
</g>
<defs>
<clipPath id="clip0_55_433">
<rect width="80" height="32" fill="white" transform="translate(0.5 0.333328)"/>
</clipPath>
</defs>
</svg>
