<svg width="95" height="29" viewBox="0 0 95 29" fill="none" xmlns="http://www.w3.org/2000/svg">
<g clip-path="url(#clip0_55_210)">
<path fill-rule="evenodd" clip-rule="evenodd" d="M38.5106 1.19603C38.0784 1.19603 37.8868 1.4552 37.7264 1.82607C27.6383 25.2274 26.7917 27.0773 26.7917 27.0773C32.5085 27.0773 32.5085 27.0773 32.5085 27.0773C33.6983 24.1415 33.6983 24.1415 33.6983 24.1415C42.3115 24.1415 42.3115 24.1415 42.3115 24.1415C43.5057 27.0773 43.5057 27.0773 43.5057 27.0773C50.2295 27.0773 50.2295 27.0773 50.2295 27.0773C50.2295 27.0773 49.6547 25.8753 39.2948 1.82607C39.1344 1.4552 38.9429 1.19603 38.5106 1.19603ZM35.5163 19.6641C37.9982 13.5379 37.9982 13.5379 37.9982 13.5379C40.489 19.6641 40.489 19.6641 40.489 19.6641H35.5163ZM67.0682 15.3209C69.0333 14.1411 70.5215 12.0811 70.5215 9.1275C70.5215 6.80834 69.5992 4.89586 67.9951 3.60461C66.3687 2.29081 64.4883 1.58024 60.6429 1.58024C52.4174 1.58024 52.4174 1.58024 52.4174 1.58024C52.4174 27.0773 52.4174 27.0773 52.4174 27.0773C58.4951 27.0773 58.4951 27.0773 58.4951 27.0773C58.4951 17.5862 58.4951 17.5862 58.4951 17.5862C60.38 17.5862 60.38 17.5862 60.38 17.5862C62.4297 17.5862 63.4635 18.3682 64.3234 20.4372C65.0497 22.1887 65.5621 24.2666 66.2306 27.0773C73.008 27.0773 73.008 27.0773 73.008 27.0773C72.0455 24.1862 71.5642 22.8188 70.8424 20.7812C69.8532 17.993 68.6546 16.2771 67.0682 15.3209ZM63.1827 12.1929C62.4476 12.7604 61.4984 12.9391 59.7918 12.9391C58.4951 12.9391 58.4951 12.9391 58.4951 12.9391C58.4951 12.9391 58.4818 6.14268 58.4951 6.14268C59.7918 6.14268 59.7918 6.14268 59.7918 6.14268C61.5741 6.14268 62.4609 6.33924 63.1783 6.88431C63.9982 7.5099 64.3635 8.44829 64.3635 9.53417C64.3635 10.7183 63.9536 11.5896 63.1827 12.1929ZM13.1567 12.385C2.83244 2.02718 2.83244 2.02718 2.83244 2.02718C2.52054 1.71883 2.20864 1.49992 1.71851 1.49992C1.71851 27.0773 1.71851 27.0773 1.71851 27.0773C7.02549 27.0773 7.02549 27.0773 7.02549 27.0773C7.02549 14.8471 7.02549 14.8471 7.02549 14.8471C13.1567 20.9957 13.1567 20.9957 13.1567 20.9957C19.2924 14.8471 19.2924 14.8471 19.2924 14.8471C19.2924 27.0773 19.2924 27.0773 19.2924 27.0773C24.5994 27.0773 24.5994 27.0773 24.5994 27.0773C24.5994 1.49992 24.5994 1.49992 24.5994 1.49992C24.1093 1.49992 23.7974 1.71883 23.4855 2.02718L13.1567 12.385ZM91.932 14.3556C89.2229 11.7729 84.3081 11.3304 82.3653 9.81125C81.6034 9.21692 81.3315 8.34106 81.5811 7.50545C81.8884 6.46883 82.9178 5.78963 84.4283 5.78963C86.5092 5.78963 88.3762 6.74137 89.6685 8.28299C93.1395 4.64123 93.1395 4.64123 93.1395 4.64123C91.0943 2.46066 87.8282 1.14696 84.3882 1.14696C80.3779 1.14696 77.3524 3.0907 76.0023 6.19175C74.9551 8.60023 75.3161 11.1115 76.6038 12.9168C79.0946 16.4111 84.3526 16.5183 86.6295 18.3101C87.4405 18.9492 87.895 19.9814 87.4093 21.094C86.9905 22.0681 85.9344 22.7294 84.2055 22.7742C81.8083 22.8322 79.6694 21.7062 78.0965 19.7356C74.6209 23.3818 74.6209 23.3818 74.6209 23.3818C76.9202 26.1746 80.3423 27.5197 84.4773 27.5197C88.4966 27.5197 92.0256 25.9513 93.4648 22.6088C94.7258 19.6865 94.2713 16.581 91.932 14.3556Z" fill="#1C1C1B"/>
</g>
<defs>
<clipPath id="clip0_55_210">
<rect width="94" height="28" fill="white" transform="translate(0.935059 0.333328)"/>
</clipPath>
</defs>
</svg>
