<svg width="40" height="39" viewBox="0 0 40 39" fill="none" xmlns="http://www.w3.org/2000/svg">
<path d="M0.935059 0H39.4673C39.467 12.8779 39.4678 25.7558 39.467 38.6337C26.6232 38.6345 13.7788 38.6337 0.935059 38.6341V0ZM34.2972 27.9442C34.2955 28.0264 34.2953 28.1086 34.2968 28.1907C34.4808 28.1895 34.6658 28.1903 34.8498 28.1903C34.851 28.7029 34.8498 29.2154 34.8506 29.7284C34.9513 29.7275 35.0519 29.7275 35.1524 29.7279C35.1524 29.2154 35.152 28.7029 35.1528 28.1903C35.3374 28.1903 35.5226 28.1899 35.7071 28.1903C35.7067 28.1084 35.7067 28.027 35.7071 27.945C35.2371 27.9442 34.7672 27.9458 34.2972 27.9442ZM36.0587 27.9446C36.0574 28.5391 36.0574 29.1335 36.0587 29.728H36.3596C36.3617 29.2408 36.3564 28.7542 36.3627 28.2671C36.5643 28.7498 36.7464 29.2404 36.9389 29.7267C37.0034 29.7272 37.0682 29.7272 37.1338 29.7272C37.3278 29.2389 37.5127 28.7469 37.7119 28.2611C37.7155 28.7498 37.7127 29.2389 37.714 29.7279C37.8137 29.7275 37.9139 29.7275 38.014 29.7287C38.0177 29.1342 38.0144 28.5398 38.0157 27.9454C37.863 27.9442 37.7103 27.9446 37.558 27.9454C37.3882 28.392 37.2149 28.8373 37.0427 29.2829C36.8693 28.8365 36.6928 28.3912 36.5195 27.9446C36.3656 27.945 36.2116 27.9446 36.0587 27.9446ZM5.50874 29.8456C4.75886 29.8759 4.00379 30.2158 3.55735 30.834C3.17319 31.3521 3.0197 32.0107 3.02295 32.648C3.01135 33.248 3.13227 33.8659 3.45271 34.38C3.71237 34.8007 4.10996 35.1307 4.5673 35.316C5.11838 35.5399 5.73624 35.58 6.31674 35.4603C6.85521 35.3494 7.36486 35.0671 7.71553 34.6389C8.03209 34.2599 8.21531 33.7835 8.29012 33.2985C8.37084 32.7351 8.34937 32.1498 8.18314 31.6034C8.02731 31.0914 7.71115 30.6249 7.27183 30.3168C6.76329 29.9558 6.12507 29.8127 5.50884 29.8455M10.6411 30.6063C10.6419 30.3981 10.6419 30.1898 10.6411 29.9816C10.1923 29.9816 9.74336 29.9792 9.29448 29.9832C9.29682 31.7788 9.29488 33.5745 9.2957 35.37C9.77675 35.3721 10.2579 35.37 10.7391 35.3712C10.7414 34.1793 10.7362 32.9867 10.7418 31.7951C10.8006 31.6198 10.9613 31.4929 11.1215 31.4098C11.4892 31.2348 11.906 31.2198 12.3056 31.2162C12.3056 30.7709 12.3052 30.3256 12.306 29.8806C11.6762 29.8218 11.0467 30.1335 10.6411 30.6063ZM14.1736 30.0265C13.6837 30.1833 13.2467 30.5013 12.9518 30.9243C13.2703 31.1109 13.5919 31.2922 13.9127 31.4743C14.1864 31.1347 14.5907 30.9005 15.028 30.8659C15.3409 30.8389 15.7159 30.8548 15.9394 31.1088C16.0976 31.2905 16.0515 31.5446 16.0574 31.7654C15.3227 31.8519 14.5812 31.9728 13.8965 32.2643C13.51 32.4321 13.133 32.6726 12.9048 33.0376C12.6499 33.4472 12.6241 33.9708 12.7661 34.4245C12.8813 34.7987 13.1589 35.1184 13.516 35.2785C13.9252 35.4691 14.3931 35.4587 14.8292 35.3892C15.2643 35.3164 15.6809 35.1466 16.0495 34.9044C16.0905 35.0599 16.1314 35.2149 16.1728 35.3708C16.5939 35.3704 17.015 35.3708 17.436 35.3708C17.4205 34.1256 17.4305 32.8795 17.4288 31.6342C17.4539 31.2671 17.3848 30.8786 17.1545 30.5832C16.8551 30.1836 16.3592 29.9943 15.8817 29.918C15.314 29.8365 14.7231 29.8508 14.1736 30.0265ZM21.2022 29.9109C20.6976 30.015 20.2559 30.2989 19.844 30.5963C19.8026 30.3856 19.7549 30.1756 19.7176 29.9645C19.3242 30.0182 18.9307 30.0726 18.5374 30.1279C18.5366 31.8731 18.5374 33.6177 18.5374 35.3625C19.0077 35.3629 19.4777 35.3625 19.9485 35.3625V31.5045C20.2818 31.2269 20.6631 30.9741 21.1028 30.9192C21.3243 30.8946 21.5843 30.9076 21.7457 31.0831C21.9052 31.2695 21.9307 31.5283 21.9381 31.7641C21.939 32.9637 21.9386 34.1629 21.9386 35.3625C22.4117 35.3633 22.8849 35.3625 23.358 35.3625V31.5347C23.3525 31.2786 23.3175 31.0206 23.2293 30.7796C23.1143 30.4556 22.8761 30.1752 22.5616 30.0329C22.139 29.8408 21.6523 29.8253 21.2023 29.9108M24.8901 30.695C24.4575 31.2807 24.306 32.0293 24.3198 32.7466C24.326 33.4011 24.471 34.0862 24.8858 34.6078C25.2146 35.0321 25.7271 35.2937 26.2567 35.3494C26.6432 35.3863 27.0562 35.37 27.4018 35.1733C27.642 35.0392 27.811 34.8142 27.9529 34.5839C27.9641 34.8106 27.9561 35.0377 27.9585 35.2643C27.9493 35.5645 27.9056 35.8913 27.698 36.1244C27.5087 36.3347 27.2137 36.409 26.9402 36.4098C26.6526 36.4139 26.3422 36.4039 26.0933 36.2421C25.9691 36.1621 25.9056 36.0222 25.869 35.8846C25.4022 35.9597 24.9358 36.0352 24.469 36.1104C24.5537 36.5462 24.8575 36.916 25.242 37.1252C25.8424 37.459 26.556 37.4961 27.2256 37.4317C27.8061 37.3736 28.4193 37.2082 28.8332 36.7713C29.2042 36.3792 29.3202 35.8209 29.3287 35.2969V29.9652C28.9282 29.9677 28.5278 29.9593 28.1279 29.9697C28.0968 30.1681 28.0578 30.3657 28.0232 30.5642C27.8993 30.3068 27.6575 30.1283 27.3982 30.0234C27.0575 29.8838 26.6817 29.8508 26.3162 29.8719C25.7486 29.9149 25.222 30.2365 24.8901 30.695ZM30.793 30.6543C30.4034 31.1184 30.2296 31.7263 30.1864 32.3224C30.1446 32.9728 30.2054 33.6512 30.5024 34.2409C30.7325 34.7005 31.1278 35.077 31.6062 35.2671C32.2205 35.5148 32.9099 35.5124 33.5501 35.3768C34.1767 35.2396 34.7664 34.8631 35.0852 34.2953C34.7372 34.1039 34.39 33.911 34.0435 33.7168C33.888 33.9399 33.6988 34.1486 33.4535 34.2722C33.1771 34.413 32.8546 34.4309 32.5528 34.3873C32.2607 34.3446 31.9842 34.1837 31.8248 33.9319C31.628 33.6225 31.5739 33.2448 31.5716 32.8841C32.7597 32.885 33.9481 32.8841 35.137 32.8845C35.1772 32.4102 35.1319 31.9267 34.9955 31.4707C34.8455 30.976 34.541 30.518 34.1012 30.2384C33.562 29.8893 32.8884 29.8139 32.2626 29.8874C31.7024 29.955 31.1552 30.2134 30.793 30.6543Z" fill="#1C1C1B"/>
<path d="M31.9009 31.1451C32.0726 30.9507 32.3287 30.846 32.5844 30.8305C32.9105 30.8062 33.2663 30.8977 33.4889 31.151C33.6858 31.37 33.7513 31.6732 33.759 31.9605C33.0369 31.9601 32.3148 31.9613 31.5927 31.9597C31.6161 31.6679 31.7013 31.367 31.9009 31.1451ZM26.6202 30.8917C26.9525 30.8305 27.3144 30.9375 27.5498 31.1836C27.8265 31.4667 27.9391 31.8695 27.9629 32.2564C27.9741 32.5399 27.9621 32.8254 27.9172 33.1056C27.8667 33.4011 27.7673 33.7032 27.5542 33.9216C27.3601 34.1191 27.0778 34.2094 26.8055 34.2027C26.5518 34.2107 26.2846 34.1299 26.1088 33.9387C25.8727 33.6949 25.7943 33.3474 25.7562 33.0205C25.7252 32.6877 25.716 32.351 25.7598 32.0189C25.8011 31.7271 25.8914 31.4306 26.0862 31.2031C26.223 31.0408 26.4116 30.9308 26.6202 30.8917ZM5.45045 31.0627C5.7948 31.0114 6.18007 31.0683 6.44971 31.3049C6.70296 31.5231 6.82622 31.8528 6.8815 32.1749C6.93992 32.537 6.93748 32.91 6.86725 33.2699C6.80271 33.586 6.66204 33.9049 6.39963 34.1041C6.10688 34.3219 5.71449 34.3609 5.36545 34.2889C5.08034 34.2309 4.82699 34.0452 4.68143 33.7932C4.47154 33.4281 4.42543 32.9947 4.43408 32.5804C4.44772 32.2083 4.51327 31.8211 4.7252 31.5068C4.88949 31.2627 5.15984 31.1009 5.45045 31.0627ZM14.7499 32.9236C15.1523 32.757 15.586 32.683 16.0158 32.6284C16.0175 33.0484 16.015 33.4687 16.0171 33.889C15.6576 34.2118 15.1992 34.4655 14.705 34.4564C14.5391 34.4607 14.3749 34.3899 14.262 34.2695C14.0468 34.0273 14.0159 33.644 14.1824 33.3673C14.3066 33.153 14.5288 33.0198 14.7499 32.9235V32.9236Z" fill="#1C1C1B"/>
<path d="M39.4673 0H39.4999V38.6667H0.935059V38.6341C13.7788 38.6337 26.6232 38.6345 39.467 38.6337C39.4678 25.7558 39.467 12.8779 39.4674 0L39.4673 0Z" fill="#1C1C1B"/>
<path d="M34.297 27.9442C34.7669 27.9458 35.2369 27.9442 35.7069 27.945C35.7064 28.027 35.7064 28.1085 35.7069 28.1903C35.5224 28.1899 35.3372 28.1903 35.1526 28.1903C35.1518 28.7029 35.1522 29.2154 35.1522 29.728C35.0516 29.7276 34.951 29.7276 34.8504 29.7284C34.8496 29.2154 34.8508 28.7029 34.8496 28.1903C34.6656 28.1903 34.4806 28.1896 34.2966 28.1908C34.2951 28.1087 34.2952 28.0265 34.297 27.9443V27.9442ZM36.0584 27.9446C36.2114 27.9446 36.3653 27.945 36.5192 27.9446C36.6926 28.3912 36.8691 28.8365 37.0424 29.283C37.2147 28.8372 37.388 28.392 37.5578 27.9454C37.7101 27.9446 37.8627 27.9442 38.0154 27.9454C38.0142 28.5399 38.0175 29.1343 38.0138 29.7288C37.9137 29.7277 37.8137 29.7275 37.7136 29.728C37.7125 29.2389 37.7152 28.7498 37.7116 28.2612C37.5125 28.747 37.3275 29.2389 37.1335 29.7271C37.068 29.7271 37.0031 29.7271 36.9387 29.7267C36.7463 29.2404 36.5641 28.7498 36.3626 28.2671C36.3562 28.7541 36.3614 29.2408 36.3594 29.7279H36.0584C36.0572 29.1334 36.0572 28.539 36.0584 27.9445V27.9446ZM5.50862 29.8455C6.12485 29.8127 6.76307 29.9558 7.2716 30.3168C7.71092 30.6249 8.02708 31.0914 8.18292 31.6034C8.34914 32.1498 8.37062 32.7351 8.2898 33.2985C8.21509 33.7835 8.03186 34.2599 7.7153 34.6389C7.36464 35.0671 6.85488 35.3494 6.31652 35.4603C5.73602 35.58 5.11816 35.5398 4.56707 35.316C4.10973 35.1307 3.71215 34.8007 3.45248 34.38C3.13205 33.8659 3.01113 33.248 3.02273 32.648C3.01947 32.0106 3.17297 31.3522 3.55712 30.8341C4.00357 30.2158 4.75864 29.8759 5.50862 29.8456M5.4506 31.0627C5.15989 31.1009 4.88954 31.2627 4.72525 31.5068C4.51333 31.8209 4.44777 32.2082 4.43413 32.5804C4.42548 32.9947 4.47159 33.4281 4.68148 33.7931C4.82704 34.0452 5.08039 34.2309 5.3655 34.2889C5.71454 34.3609 6.10704 34.3219 6.39968 34.1041C6.66209 33.9049 6.80276 33.586 6.8672 33.2699C6.93763 32.91 6.93997 32.537 6.88145 32.1749C6.82628 31.8528 6.70301 31.5231 6.44976 31.3049C6.18012 31.0683 5.79495 31.0114 5.4506 31.0627ZM10.6409 30.6063C11.0465 30.1335 11.6759 29.8218 12.3058 29.8805C12.305 30.3256 12.3054 30.7709 12.3054 31.2162C11.9057 31.2198 11.489 31.2348 11.1213 31.4098C10.961 31.493 10.8004 31.6198 10.7416 31.7951C10.736 32.9867 10.7412 34.1792 10.7387 35.3712C10.2577 35.37 9.77653 35.3721 9.29537 35.37C9.29466 33.5745 9.29659 31.7789 9.29425 29.9832C9.74314 29.9792 10.192 29.9816 10.6409 29.9816C10.6417 30.1896 10.6417 30.3979 10.6409 30.6063ZM14.1734 30.0265C14.7229 29.8508 15.3137 29.8365 15.8814 29.918C16.359 29.9943 16.8548 30.1837 17.1543 30.5832C17.3844 30.8786 17.4537 31.2671 17.4286 31.6341C17.4302 32.8795 17.4203 34.1256 17.4357 35.3708C17.0147 35.3708 16.5936 35.3704 16.1725 35.3708C16.1312 35.215 16.0903 35.0599 16.0494 34.9044C15.6807 35.1467 15.264 35.3164 14.829 35.3892C14.3929 35.4587 13.9248 35.4691 13.5157 35.2786C13.1587 35.1184 12.8811 34.7987 12.7658 34.4246C12.6239 33.9708 12.6497 33.4472 12.9046 33.0376C13.1328 32.6726 13.5097 32.4321 13.8962 32.2643C14.5809 31.9728 15.3225 31.852 16.0572 31.7653C16.0513 31.5446 16.0974 31.2905 15.9391 31.1088C15.7157 30.8548 15.3407 30.8389 15.0278 30.8659C14.5904 30.9005 14.186 31.1347 13.9125 31.4743C13.5917 31.2921 13.27 31.1109 12.9515 30.9244C13.2465 30.5013 13.6835 30.1832 14.1734 30.0266M14.7499 32.9235C14.5288 33.0198 14.3065 33.153 14.1825 33.3673C14.0159 33.644 14.0469 34.0273 14.2621 34.2695C14.375 34.3899 14.5391 34.4607 14.7049 34.4564C15.1992 34.4655 15.6577 34.2118 16.017 33.889C16.0151 33.4686 16.0175 33.0484 16.016 32.6285C15.5861 32.683 15.1523 32.7569 14.7499 32.9235ZM21.202 29.9109C21.652 29.8254 22.1387 29.8408 22.5614 30.0329C22.8759 30.1752 23.1141 30.4555 23.229 30.7796C23.3173 31.0206 23.3522 31.2786 23.3578 31.5347V35.3625C22.8847 35.3625 22.4115 35.3633 21.9384 35.3625C21.9384 34.1629 21.9388 32.9637 21.938 31.7641C21.9304 31.5283 21.905 31.2695 21.7456 31.083C21.584 30.9077 21.3241 30.8946 21.1026 30.9191C20.6629 30.9741 20.2815 31.2269 19.9483 31.5044V35.3625C19.4775 35.3625 19.0076 35.3629 18.5372 35.3625C18.5372 33.6178 18.5364 31.8731 18.5372 30.1279C18.9304 30.0726 19.324 30.0182 19.7172 29.9645C19.7547 30.1756 19.8023 30.3856 19.8438 30.5963C20.2556 30.2989 20.6974 30.015 21.2019 29.9109H21.202ZM24.8898 30.695C25.2219 30.2365 25.7482 29.9148 26.3161 29.8719C26.6815 29.8508 27.0571 29.8838 27.3979 30.0234C27.6572 30.1283 27.8989 30.3068 28.023 30.5642C28.0576 30.3657 28.0966 30.1681 28.1275 29.9697C28.5276 29.9593 28.928 29.9677 29.3283 29.9653V35.2969C29.32 35.8209 29.204 36.3792 28.8329 36.7712C28.4191 37.2082 27.8059 37.3736 27.2254 37.4317C26.5558 37.4961 25.8421 37.4591 25.2417 37.1252C24.8573 36.916 24.5534 36.5462 24.4687 36.1103C24.9355 36.0352 25.4019 35.9597 25.8687 35.8846C25.9054 36.0222 25.9689 36.1621 26.093 36.242C26.3419 36.4039 26.6524 36.4138 26.9399 36.4098C27.2135 36.409 27.5085 36.3347 27.6978 36.1243C27.9053 35.8913 27.9491 35.5644 27.9582 35.2643C27.9558 35.0377 27.9638 34.8106 27.9527 34.584C27.8107 34.8142 27.6417 35.0392 27.4016 35.1733C27.056 35.37 26.6429 35.3863 26.2565 35.3494C25.7268 35.2937 25.2142 35.0321 24.8854 34.6078C24.4708 34.0862 24.3255 33.4011 24.3196 32.7466C24.3058 32.0293 24.4572 31.2807 24.8898 30.695ZM26.6203 30.8917C26.4117 30.9308 26.223 31.0408 26.0863 31.2031C25.8914 31.4305 25.8012 31.7271 25.7598 32.0189C25.7161 32.351 25.7252 32.6877 25.7562 33.0205C25.7943 33.3474 25.8727 33.6949 26.1089 33.9387C26.2847 34.1299 26.5519 34.2106 26.8055 34.2027C27.0779 34.2094 27.3603 34.1192 27.5543 33.9216C27.7673 33.7032 27.8668 33.4011 27.9173 33.1056C27.9621 32.8253 27.9742 32.5399 27.9631 32.2563C27.9391 31.8695 27.8267 31.4667 27.5498 31.1835C27.3145 30.9374 26.9526 30.8305 26.6203 30.8917ZM30.7928 30.6543C31.1551 30.2134 31.7022 29.9551 32.2624 29.8874C32.8882 29.8138 33.5618 29.8894 34.1009 30.2385C34.5407 30.5179 34.8453 30.976 34.9951 31.4707C35.1315 31.9267 35.1768 32.4102 35.1366 32.8845C33.9478 32.8841 32.7593 32.8849 31.5713 32.8841C31.5737 33.2448 31.6278 33.6225 31.8246 33.9318C31.984 34.1836 32.2604 34.3446 32.5526 34.3871C32.8544 34.4309 33.1769 34.413 33.4532 34.2722C33.6986 34.1486 33.8879 33.9399 34.0433 33.7168C34.3898 33.911 34.737 34.1039 35.085 34.2953C34.7661 34.8631 34.1765 35.2396 33.5498 35.3768C32.9096 35.5124 32.2202 35.5148 31.6059 35.2671C31.1276 35.077 30.7323 34.7005 30.5022 34.2409C30.2052 33.6512 30.1443 32.9728 30.186 32.3224C30.2294 31.7263 30.4031 31.1184 30.7928 30.6543ZM31.901 31.145C31.7014 31.3669 31.6163 31.6679 31.5927 31.9597C32.3148 31.9613 33.0369 31.9601 33.759 31.9605C33.7514 31.673 33.6857 31.3701 33.489 31.151C33.2664 30.8977 32.9105 30.8063 32.5845 30.8305C32.3288 30.846 32.0727 30.9506 31.901 31.145Z" fill="white"/>
</svg>
