<svg width="116" height="33" viewBox="0 0 116 33" fill="none" xmlns="http://www.w3.org/2000/svg">
<path d="M59.7201 31.3863H64.0858V19.0264C64.0858 16.0498 66.2119 13.7253 68.9617 13.7253C71.7115 13.7253 74.0928 15.9364 74.0928 19.0264V31.3863H78.827V18.7996C78.827 13.4985 74.4613 9.41631 69.6988 9.41631C67.9412 9.41631 65.7017 10.04 64.0858 12.2512V9.89823H59.7201L59.7201 31.3863ZM104.454 9.41631C98.0756 9.41631 93.0863 14.4907 93.0863 20.784C93.0863 27.1908 97.9622 31.8966 104.454 31.8966C110.946 31.8966 115.935 27.2191 115.935 20.784C115.935 14.4907 111.059 9.41631 104.454 9.41631ZM104.454 27.4459C100.825 27.4459 97.9622 24.4693 97.9622 20.784C97.9622 16.8436 100.967 13.9804 104.454 13.9804C108.196 13.9804 111.201 16.8152 111.201 20.784C111.201 24.4693 108.309 27.4459 104.454 27.4459ZM92.3208 31.3863V26.8223C89.0608 28.4381 85.9424 27.1908 85.9424 23.6189V14.2355H91.8106V9.92658H85.9708V4.37029L81.35 4.37029V22.8818C81.35 30.5359 86.5945 33.1156 92.3208 31.3863ZM45.7444 9.41631C39.366 9.41631 34.3766 14.4907 34.3766 20.784C34.3766 27.1908 39.2526 31.8966 45.7444 31.8966C52.2361 31.8966 57.2255 27.2191 57.2255 20.784C57.2255 14.4907 52.3495 9.41631 45.7444 9.41631ZM45.7444 27.4459C42.1158 27.4459 39.2526 24.4693 39.2526 20.784C39.2526 16.8436 42.1158 13.9804 45.7444 13.9804C49.4864 13.9804 52.4913 16.8152 52.4913 20.784C52.4913 24.4693 49.4864 27.4459 45.7444 27.4459ZM16.3754 0.0329742C7.38891 0.0329742 0.500244 6.8366 0.500244 16.0782C0.500244 24.9796 7.36057 32.01 16.3754 32.01C25.617 32.01 32.5056 24.9796 32.5056 16.2199C32.4773 6.8366 25.617 0.0329742 16.3754 0.0329742ZM16.3754 27.1908C10.1387 27.1908 5.51792 22.5133 5.51792 16.0782C5.51792 9.41631 10.1387 4.48368 16.3754 4.48368C22.7538 4.48368 27.3746 9.41631 27.3746 15.9648C27.3746 22.5133 22.7538 27.1908 16.3754 27.1908Z" fill="#1C1C1B"/>
<path d="M31.7401 32.6337C22.7537 31.6415 16.9989 27.1908 14.1357 18.7996L18.6431 17.3255C20.8827 23.9874 25.1349 27.3325 32.2504 28.0696L31.7401 32.6337Z" fill="#1C1C1B"/>
</svg>
