<svg width="128" height="27" viewBox="0 0 128 27" fill="none" xmlns="http://www.w3.org/2000/svg">
<g clip-path="url(#clip0_55_489)">
<path fill-rule="evenodd" clip-rule="evenodd" d="M56.6797 6.88678C55.7569 6.37756 54.3862 6.12806 52.4876 6.12806C49.8907 6.13062 47.4797 6.67311 46.5685 7.01473C46.362 7.08126 46.1426 7.26038 46.1374 7.56489V7.63398L46.3955 8.93391L46.4007 8.9595C46.4807 9.22179 46.7001 9.34334 46.8976 9.34334H46.9015C46.966 9.33822 47.0151 9.32543 47.0615 9.31391L47.4939 9.21155C48.6258 8.93007 50.336 8.49762 52.2436 8.49762C53.4027 8.49762 54.1797 8.59997 54.7024 8.82004C55.5491 9.14374 55.5543 9.69519 55.5633 10.6074V11.9726C55.4665 11.9701 55.3026 11.9688 55.0509 11.9688C54.1151 11.9688 52.2759 12.0136 50.4689 12.304C47.7095 12.7313 45.4262 13.3954 45.4417 17.2235C45.4417 22.0829 49.9204 22.0906 52.0707 22.0957C53.5292 22.0931 54.8779 21.8756 55.7595 21.6939C57.7665 21.2244 58.2802 20.5834 58.2531 18.5759V10.4936C58.2531 9.26017 58.2583 7.72738 56.6785 6.8855L56.6797 6.88678ZM55.5762 19.3653C54.5075 19.7146 53.3381 19.8899 52.0991 19.8899C50.1192 19.8745 48.1883 19.6468 48.1844 17.1071C48.1973 15.0855 49.2686 14.8463 50.6238 14.5418L50.718 14.52C51.9236 14.2603 54.9541 14.213 55.5775 14.2053L55.5762 19.3653ZM80.6285 10.4923V18.5708C80.6543 20.5795 80.1419 21.2193 78.1336 21.6888C77.2559 21.8718 75.9071 22.0893 74.4461 22.0906C72.2958 22.0854 67.8184 22.0778 67.8171 17.2197C67.8003 13.3941 70.0836 12.7288 72.8431 12.3014C74.65 12.0097 76.4905 11.9649 77.425 11.9649C77.678 11.9649 77.8406 11.9675 77.9413 11.9688V10.6049C77.9309 9.69263 77.9245 9.14246 77.0791 8.81876C76.5577 8.59613 75.7781 8.49634 74.619 8.49634C72.7088 8.49634 70.9999 8.92624 69.8693 9.21027L69.4382 9.31263C69.3917 9.32543 69.3414 9.33822 69.2769 9.33822C69.0781 9.33822 68.86 9.22051 68.7787 8.95438L68.7722 8.93135L68.5141 7.63142V7.56361C68.5192 7.2591 68.7387 7.07742 68.9439 7.01345C69.8577 6.67183 72.2661 6.12806 74.8643 6.12678C76.7616 6.12678 78.1336 6.37628 79.0551 6.88678C80.6337 7.72738 80.6311 9.26017 80.6285 10.4923ZM77.9568 14.2053C77.3295 14.2117 74.3041 14.2603 73.096 14.52L72.9992 14.5418C71.644 14.8463 70.5727 15.0855 70.5598 17.1071C70.5624 19.6468 72.4959 19.8758 74.4758 19.8899C75.7148 19.8899 76.8842 19.7146 77.9529 19.3653V14.2053H77.9568ZM121.165 6.12678C114.931 6.13702 114.402 10.2594 114.396 14.1234C114.402 17.9746 114.93 22.0816 121.165 22.0906C127.395 22.0803 127.926 17.9835 127.935 14.1221C127.928 10.079 127.401 6.13702 121.165 6.12678ZM121.165 19.8362C117.383 19.8183 117.194 17.8658 117.168 14.1247C117.194 10.3656 117.383 8.40166 121.164 8.38502C124.946 8.40166 125.137 10.3656 125.162 14.1234C125.137 17.8645 124.946 19.817 121.165 19.8362ZM109.975 21.5225L109.814 21.5634C108.942 21.7861 107.748 22.0906 105.655 22.0906H105.65C99.8778 22.0803 98.7472 19.1517 98.7407 14.094C98.7459 8.29546 100.574 6.13574 105.478 6.12806C107.21 6.12806 108.404 6.35453 109.26 6.56308L109.255 1.8905C109.248 1.68579 109.339 1.4171 109.82 1.32498L111.353 0.930908H111.437C111.79 0.939864 111.915 1.25461 111.915 1.5233V19.0774C111.938 20.188 111.808 21.1374 109.975 21.525V21.5225ZM109.256 8.8098C108.745 8.6793 107.316 8.35432 105.707 8.35432C102.753 8.38375 101.512 9.19108 101.483 14.1247C101.518 19.5432 103.12 19.8374 105.734 19.863C107.36 19.863 108.756 19.5214 109.255 19.3858L109.256 8.8098ZM95.4856 21.7234H94.1175C93.7471 21.7234 93.4721 21.4444 93.4721 21.0747V10.6599C93.4463 8.89937 92.921 8.40805 91.0366 8.38247C88.9044 8.38247 86.7451 8.9224 86.0339 9.11687V21.076C86.0339 21.4508 85.7758 21.7246 85.4182 21.7246H84.0178C83.65 21.7246 83.3725 21.4457 83.3725 21.0772V9.3958C83.3531 8.31593 83.4525 7.56873 84.982 7.06974C86.4443 6.5618 89.2413 6.13062 91.0934 6.12934C94.617 6.13446 96.1206 7.4152 96.1271 10.4104V21.0785C96.1271 21.447 95.8496 21.7259 95.4818 21.7259L95.4856 21.7234ZM64.4407 22.0048C65.2306 21.9882 65.8114 21.8334 66.0411 21.5749C66.1211 21.4854 66.1573 21.3779 66.1482 21.2743C66.1431 21.1873 66.1431 21.1873 65.9288 20.1688L65.9224 20.1432C65.8759 19.8784 65.6901 19.7568 65.5326 19.7568H65.5094C65.5094 19.7568 65.3119 19.753 65.1157 19.753C64.553 19.7351 64.087 19.6506 64.078 18.8267V1.52074C64.078 1.23414 63.905 0.938585 63.5746 0.932188H63.4752L61.9393 1.32882C61.6786 1.35441 61.405 1.54249 61.4179 1.88922V18.8804C61.4217 20.8917 62.4956 22.001 64.4407 22.0048ZM42.7597 21.7234H31.7604C31.3926 21.7234 31.1151 21.4444 31.1151 21.0747V19.7236C31.1086 19.3909 31.2131 19.2463 31.4171 18.9917L40.1718 8.74967H31.5926C31.2248 8.74967 30.9473 8.46819 30.9473 8.09971V7.14267C30.9473 6.77163 31.2261 6.49399 31.5926 6.49399H42.7054C43.0707 6.49399 43.3469 6.77291 43.3482 7.14267V8.52193C43.3547 8.77142 43.2708 8.98253 43.0707 9.20516L34.294 19.469H42.7609C43.1275 19.469 43.4037 19.7479 43.4063 20.1176V21.0772C43.4037 21.4444 43.1262 21.7234 42.7597 21.7234Z" fill="#282828"/>
<path fill-rule="evenodd" clip-rule="evenodd" d="M6.0307 26.0159C5.09753 26.0159 4.57868 25.7959 4.30118 25.6359C3.91784 25.4133 3.21184 24.8465 2.57811 23.1704C1.56233 20.4823 0.960872 17.1992 0.935059 13.3429V13.3301C0.960872 9.46617 1.56233 6.18436 2.57811 3.49494C3.21054 1.82013 3.91655 1.25206 4.30376 1.03071C4.57739 0.868219 5.09495 0.650711 6.02683 0.650711C6.38306 0.650711 6.80124 0.682697 7.28654 0.760744C10.108 1.22135 13.2327 2.33831 16.5666 4.24471L16.5769 4.24982C19.8837 6.20227 22.4083 8.36584 24.2139 10.5959C25.3407 11.988 25.4749 12.8862 25.4749 13.3314C25.4749 13.7767 25.3407 14.6774 24.2139 16.0669C22.407 18.297 19.8837 20.4618 16.5769 22.413L16.564 22.4207C13.234 24.3271 10.108 25.444 7.28654 25.9034C6.79995 25.984 6.38306 26.0147 6.02941 26.0147" fill="#1C1C1B"/>
</g>
<defs>
<clipPath id="clip0_55_489">
<rect width="127" height="26" fill="white" transform="translate(0.935059 0.333328)"/>
</clipPath>
</defs>
</svg>
