<svg width="74" height="68" viewBox="0 0 74 68" fill="none" xmlns="http://www.w3.org/2000/svg">
<g clip-path="url(#clip0_10_42)">
<path d="M5.63533 0V67.9878H0V0H5.63533Z" fill="#1C1C1B"/>
<path d="M40.7569 27.2302C40.8551 27.2302 40.9492 27.2302 41.0474 27.2302C42.9259 27.2302 44.8084 27.2302 46.6828 27.2302H74C74 31.742 74 36.258 74 40.7698H5.63531V26.9406C5.87677 27.1037 6.14687 27.0793 6.42107 27.0915C17.7449 27.4872 29.3921 27.2098 40.7528 27.2302H40.7569Z" fill="#FE7000"/>
<path d="M40.7569 27.2261C29.3921 27.2057 17.749 27.4831 6.42516 27.0874C6.15097 27.0792 5.87677 27.1037 5.63531 26.9405V13.5437H33.0958V27.0833L40.7569 27.2261Z" fill="#FEA200"/>
<path d="M70.7219 0.00406595H60.2698C63.7484 -0.00817234 67.2352 0.00406595 70.7219 0.00406595Z" fill="#FEA200"/>
<path d="M74 0L70.7219 0.00407943C71.8146 0.00407943 72.9073 0.00407943 74 0Z" fill="#FEA200"/>
<path d="M60.2698 13.5437H74C74 18.1045 73.9959 22.6653 74 27.2261H46.6828V13.5437C49.3306 13.5355 51.9866 13.5519 54.6303 13.5437C56.5088 13.5355 58.3913 13.5478 60.2698 13.5437Z" fill="#FEA200"/>
<path d="M19.3655 40.7698V54.4522H5.63531V40.7698H19.3655Z" fill="#FD4900"/>
<path d="M46.6828 40.7698V54.4563C42.1074 54.4441 37.5279 54.4726 32.9525 54.4563V40.7739H46.6828V40.7698Z" fill="#FD4900"/>
<path d="M74 40.7698C74 45.3306 74.0041 49.8955 74 54.4522H60.2698V40.7698H74Z" fill="#FD4900"/>
<path d="M19.3655 54.4522C19.3655 58.9641 19.3655 63.48 19.3655 67.9918H5.63531V54.4522H19.3655Z" fill="#FD0107"/>
<path d="M74 54.4522C73.9959 58.9641 74 63.48 74 67.9918C69.4246 67.9796 64.8452 68.0082 60.2698 67.9918V54.4522H74Z" fill="#FD0107"/>
<path d="M60.2698 40.7698V67.9959C58.3913 67.9878 56.5088 68 54.6344 67.9959V40.7698H60.2698Z" fill="#1C1C1B"/>
<path d="M46.6828 13.5437V27.2261C44.8043 27.2261 42.9218 27.2261 41.0475 27.2261V13.5396C42.9218 13.5396 44.8084 13.5478 46.6828 13.5396V13.5437Z" fill="#1C1C1B"/>
<path d="M32.9526 40.7698V54.4522C31.0741 54.4441 29.1916 54.4563 27.3172 54.4522V40.7657H32.9526V40.7698Z" fill="#1C1C1B"/>
<path d="M60.2698 0V13.5396C58.3954 13.5396 56.5088 13.5315 54.6344 13.5396V0C56.5088 0 58.3954 0.00815886 60.2698 0Z" fill="#1C1C1B"/>
<path d="M5.63531 13.5437V13.4009L5.77855 13.4703L5.63531 13.5437Z" fill="#FE7000"/>
<path d="M19.3655 0.00408936V13.5437H5.63531L5.77855 13.4703L5.63531 13.3969V0.00408936H19.3655Z" fill="#FECE00"/>
<path d="M5.77855 13.4703L5.63531 13.5437V13.3969L5.77855 13.4703Z" fill="#FEA200"/>
<path d="M74 0.00408936H60.2698V13.5437H74V0.00408936Z" fill="#FECE00"/>
</g>
<defs>
<clipPath id="clip0_10_42">
<rect width="74" height="68" fill="white"/>
</clipPath>
</defs>
</svg>
