<svg width="124" viewBox="0 0 132 40" fill="none" xmlns="http://www.w3.org/2000/svg">
<g clip-path="url(#clip0_13_522)">
<path d="M3.12412 0.0726318V37.7637H0V0.0726318H3.12412Z" fill="#1C1C1B"/>
<path d="M22.5947 15.1685C22.6492 15.1685 22.7014 15.1685 22.7558 15.1685C23.7972 15.1685 24.8408 15.1685 25.8799 15.1685H41.0241C41.0241 17.6698 41.0241 20.1733 41.0241 22.6746H3.12402V15.0079C3.25788 15.0984 3.40762 15.0848 3.55963 15.0916C9.83736 15.311 16.2943 15.1572 22.5925 15.1685H22.5947Z" fill="#FF7000"/>
<path d="M22.5947 15.1663C16.2943 15.155 9.83963 15.3088 3.5619 15.0894C3.40989 15.0849 3.25788 15.0985 3.12402 15.008V7.58105H18.3476V15.0872L22.5947 15.1663Z" fill="#FEA401"/>
<path d="M39.2068 0.0749148H33.4124C35.3408 0.0681302 37.2738 0.0749148 39.2068 0.0749148Z" fill="#FEA200"/>
<path d="M41.0241 0.0726318L39.2068 0.0748934C39.8126 0.0748934 40.4183 0.0748934 41.0241 0.0726318Z" fill="#FEA200"/>
<path d="M33.4125 7.58106H41.0243C41.0243 10.1095 41.022 12.6379 41.0243 15.1663H25.8801V7.58106C27.348 7.57654 28.8205 7.58558 30.2861 7.58106C31.3275 7.57654 32.3711 7.58332 33.4125 7.58106Z" fill="#FEA401"/>
<path d="M10.7358 22.6747V30.2599H3.12402V22.6747H10.7358Z" fill="#FE4900"/>
<path d="M25.8801 22.6747V30.2622C23.3436 30.2554 20.8048 30.2713 18.2683 30.2622V22.6769H25.8801V22.6747Z" fill="#FE4900"/>
<path d="M41.0241 22.6747C41.0241 25.2031 41.0264 27.7338 41.0241 30.2599H33.4124V22.6747H41.0241Z" fill="#FE4900"/>
<path d="M10.7358 30.2599C10.7358 32.7612 10.7358 35.2647 10.7358 37.766H3.12402V30.2599H10.7358Z" fill="#FE0207"/>
<path d="M41.0241 30.2599C41.0219 32.7612 41.0241 35.2647 41.0241 37.766C38.4876 37.7592 35.9489 37.775 33.4124 37.766V30.2599H41.0241Z" fill="#FE0207"/>
<path d="M33.4124 22.6747V37.7683C32.3711 37.7638 31.3274 37.7706 30.2883 37.7683V22.6747H33.4124Z" fill="#1C1C1B"/>
<path d="M25.88 7.581V15.1663C24.8386 15.1663 23.795 15.1663 22.7559 15.1663V7.57874C23.795 7.57874 24.8409 7.58326 25.88 7.57874V7.581Z" fill="#1C1C1B"/>
<path d="M18.2682 22.6746V30.2599C17.2268 30.2554 16.1831 30.2621 15.144 30.2599V22.6724H18.2682V22.6746Z" fill="#1C1C1B"/>
<path d="M33.4124 0.0726318V7.57874C32.3733 7.57874 31.3274 7.57422 30.2883 7.57874V0.0726318C31.3274 0.0726318 32.3733 0.0771549 33.4124 0.0726318Z" fill="#1C1C1B"/>
<path d="M3.12402 7.58099V7.50183L3.20343 7.54028L3.12402 7.58099Z" fill="#FE7000"/>
<path d="M10.7358 0.0749512V7.58106H3.12402L3.20343 7.54035L3.12402 7.49964V0.0749512H10.7358Z" fill="#FECE00"/>
<path d="M3.20343 7.54034L3.12402 7.58105V7.49963L3.20343 7.54034Z" fill="#FEA200"/>
<path d="M41.0241 0.0749512H33.4124V7.58106H41.0241V0.0749512Z" fill="#FECE00"/>
</g>
<path d="M71.3064 39.9273V37.7791H80.1915V39.9273H71.3064Z" fill="black"/>
<path d="M65.5767 37.7705V25.053H68.3694V37.7705H65.5767Z" fill="black"/>
<path d="M51.0029 37.7705L55.1103 25.053H59.1748L63.2822 37.7705H60.5325L56.975 26.2732H57.2672L53.7183 37.7705H51.0029ZM53.8558 34.3763L54.4573 32.1507H59.8192L60.4122 34.3763H53.8558Z" fill="black"/>
<path d="M123.364 22.2478V9.53027H126.157V19.9277H132V22.2478H123.364Z" fill="black"/>
<path d="M108.79 22.2478L112.898 9.53027H116.962L121.07 22.2478H118.32L114.762 10.7505H115.055L111.506 22.2478H108.79ZM111.643 18.8536L112.245 16.628H117.607L118.2 18.8536H111.643Z" fill="black"/>
<path d="M97.7551 22.2478V9.81385C98.1389 9.72792 98.5485 9.65345 98.9839 9.59043C99.4193 9.52169 99.869 9.47013 100.333 9.43576C100.797 9.39566 101.264 9.37561 101.734 9.37561C103.561 9.37561 104.936 9.70787 105.858 10.3724C106.781 11.0312 107.242 12.0623 107.242 13.4658C107.242 14.371 107.024 15.13 106.589 15.743C106.153 16.3502 105.532 16.8085 104.724 17.1178C103.922 17.4272 102.962 17.5818 101.845 17.5818C101.593 17.5818 101.361 17.579 101.149 17.5732C100.937 17.5618 100.72 17.5503 100.496 17.5389V22.2478H97.7551ZM105.24 22.2478L101.149 16.3702H104.14L108.29 22.2478H105.24ZM101.897 15.5023C102.819 15.5023 103.504 15.3419 103.951 15.0211C104.397 14.7003 104.621 14.1819 104.621 13.4658C104.621 12.9961 104.526 12.6123 104.337 12.3144C104.148 12.0108 103.862 11.7874 103.478 11.6441C103.094 11.5009 102.607 11.4293 102.017 11.4293C101.725 11.4293 101.456 11.4408 101.209 11.4637C100.963 11.4866 100.725 11.521 100.496 11.5668V15.4336C100.662 15.4451 100.817 15.4594 100.96 15.4766C101.109 15.488 101.258 15.4966 101.407 15.5023C101.562 15.5023 101.725 15.5023 101.897 15.5023Z" fill="black"/>
<path d="M88.6625 22.2478V11.8504H84.6497V9.53027H95.4681V11.8504H91.4638V22.2478H88.6625Z" fill="black"/>
<path d="M78.481 22.4111C77.868 22.4111 77.2522 22.3624 76.6335 22.265C76.0205 22.1734 75.4534 22.0416 74.9321 21.8697V19.6012C75.293 19.7215 75.6768 19.8246 76.0835 19.9106C76.4903 19.9908 76.897 20.0538 77.3037 20.0996C77.7162 20.1454 78.1057 20.1683 78.4724 20.1683C79.3259 20.1683 79.9303 20.0395 80.2855 19.7817C80.6407 19.5181 80.8182 19.1515 80.8182 18.6818C80.8182 18.2865 80.6865 17.9772 80.423 17.7537C80.1652 17.5303 79.6811 17.327 78.9708 17.1436L78.0084 16.8944C76.897 16.6137 76.0549 16.1784 75.482 15.5883C74.9149 14.9926 74.6313 14.2077 74.6313 13.2339C74.6313 12.0194 75.0696 11.0713 75.9461 10.3896C76.8283 9.70792 78.1544 9.36707 79.9246 9.36707C80.4974 9.36707 81.0417 9.40144 81.5572 9.47018C82.0785 9.53319 82.5397 9.62199 82.9407 9.73656V12.0051C82.534 11.8791 82.0814 11.7817 81.583 11.7129C81.0846 11.6442 80.5834 11.6098 80.0792 11.6098C79.4147 11.6098 78.8877 11.6728 78.4982 11.7989C78.1086 11.9192 77.8279 12.091 77.656 12.3144C77.4899 12.5378 77.4069 12.7956 77.4069 13.0878C77.4069 13.4602 77.5214 13.7523 77.7506 13.9643C77.9797 14.1762 78.4094 14.3681 79.0395 14.54L79.9933 14.7892C80.8182 14.9897 81.4971 15.2561 82.0298 15.5883C82.5626 15.9149 82.955 16.3187 83.2071 16.7999C83.4649 17.2754 83.5937 17.8397 83.5937 18.4927C83.5937 19.3062 83.3904 20.0079 82.9836 20.598C82.5826 21.1823 82.0012 21.632 81.2393 21.9471C80.4774 22.2564 79.5579 22.4111 78.481 22.4111Z" fill="black"/>
<path d="M69.1851 22.2478V9.53027H71.9778V22.2478H69.1851Z" fill="black"/>
<path d="M52.0598 22.2478V9.53027H55.454L59.1661 17.9341H58.831L62.44 9.53027H65.8342V22.2478H63.2306V11.9707H63.7805L60.0942 20.4089H57.7999L53.9932 11.9707H54.6635V22.2478H52.0598Z" fill="black"/>
<defs>
<clipPath id="clip0_13_522">
<rect width="41.0242" height="37.6979" fill="black" transform="translate(0 0.0726318)"/>
</clipPath>
</defs>
</svg>
